# xmcd CD database file
#
# Track frame offsets:
#	150
#	21918
#	38768
#	54541
#	70292
#	89905
#	111199
#	132130
#	147661
#	172723
#	189618
#	212475
#	228904
#	248508
#	269528
#	288214
#	305703
#
# Disc length: 4261 seconds
#
# Revision: 0
# Processed by: cddbd v1.4PL0 Copyright (c) Steve Scherf et al.
# Submitted via: CDex 1.50
#
DISCID=f910a311
DTITLE=Various Artist - Top Hits USA RJ21
DYEAR=2003
DGENRE=Jazz
TTITLE0=Brian Culbertson - Say What?
TTITLE1=Urban Knights - Got To Give It Up
TTITLE2=Steve Cole - NY LA
TTITLE3=Blake Aaron - She's So Fine (Radio Edit)
TTITLE4=Paul Taylor - On The Move
TTITLE5=Ronny Jordan - At Last
TTITLE6=Candy Dulfer - Finsbury Park Cafe 67
TTITLE7=Acoustic Alchemy - No Messin' (Radio Edit)
TTITLE8=BWB - Ruby Baby
TTITLE9=Bernie Williams - Just Because (Radio Mix)
TTITLE10=Richard Elliot - Corner Pocket
TTITLE11=Steely Dan - The Last Mall
TTITLE12=Fattburger - Sizzlin'
TTITLE13=Jeff Kashiwa - Voices
TTITLE14=Paul Jackson Jr - It's A Shame
TTITLE15=Larry Gittens and Media - Let Me Love You
TTITLE16=Pat Metheny - Don't Know Why
EXTD=YEAR: 2003
EXTT0=
EXTT1=
EXTT2=
EXTT3=
EXTT4=
EXTT5=
EXTT6=
EXTT7=
EXTT8=
EXTT9=
EXTT10=
EXTT11=
EXTT12=
EXTT13=
EXTT14=
EXTT15=
EXTT16=
PLAYORDER=
